# xmcd
#
# Track frame offsets: 
#        150
#        13953
#        33916
#        50845
#        69535
#        84697
#        102081
#        119184
#        143318
#        158733
#        174051
#        192942
#        210734
#
# Disc length: 3063 seconds
#
# Revision: 0
# Processed by: cddbd v1.5.2PL0 Copyright (c) Steve Scherf et al.
# Submitted via: ExactAudioCopyFreeDBPlugin 1.0
#
DISCID=b00bf50d
DTITLE=Twang Dragons - Twangasm
DYEAR=2008
DGENRE=Country
TTITLE0=My My
TTITLE1=Opposite Sides
TTITLE2=So Many Years
TTITLE3=I'm Going Crazy
TTITLE4=Whole Shebang
TTITLE5=Shot Between The Eyes
TTITLE6=Ain't No Honky Tonk
TTITLE7=Avalanche
TTITLE8=Till Death
TTITLE9=Thinking Of You
TTITLE10=I Get Scared
TTITLE11=Strong Love
TTITLE12=Reasons
EXTD=
EXTT0=
EXTT1=
EXTT2=
EXTT3=
EXTT4=
EXTT5=
EXTT6=
EXTT7=
EXTT8=
EXTT9=
EXTT10=
EXTT11=
EXTT12=
PLAYORDER=
